<?xml version="1.0" encoding="UTF-8" standalone="no"?>
<!DOCTYPE svg PUBLIC "-//W3C//DTD SVG 1.1//EN" "http://www.w3.org/Graphics/SVG/1.1/DTD/svg11.dtd">
<svg width="100%" height="100%" viewBox="0 0 512 512" version="1.1" xmlns="http://www.w3.org/2000/svg" xmlns:xlink="http://www.w3.org/1999/xlink" xml:space="preserve" xmlns:serif="http://www.serif.com/" style="fill-rule:evenodd;clip-rule:evenodd;stroke-linejoin:round;stroke-miterlimit:2;">
    <rect id="Prancheta1" x="0" y="0" width="512" height="512" style="fill:none;"/>
    <g id="Prancheta11" serif:id="Prancheta1">
        <g transform="matrix(1,0,0,1,-2.72207,0)">
            <g transform="matrix(2.92672,0,0,2.92672,357.734,379.579)">
                <path d="M0,-100.326C-0.625,-100.326 -1.243,-100.302 -1.861,-100.279C-1.937,-100.299 -2.012,-100.326 -2.094,-100.326L-74.661,-100.326C-78.511,-100.326 -81.661,-97.176 -81.661,-93.326C-81.661,-89.477 -78.511,-86.327 -74.661,-86.327L-34.743,-86.327C-37.313,-83.858 -39.628,-81.126 -41.627,-78.161L-92.16,-78.161C-96.009,-78.161 -99.159,-75.011 -99.159,-71.161C-99.159,-67.312 -96.009,-64.162 -92.16,-64.162L-48.168,-64.162C-48.934,-61.523 -49.49,-58.795 -49.814,-55.996L-69.995,-55.996C-73.844,-55.996 -76.994,-52.847 -76.994,-48.996C-76.994,-45.147 -73.844,-41.997 -69.995,-41.997L-49.491,-41.997C-49.031,-39.189 -48.335,-36.462 -47.429,-33.831L-110.825,-33.831C-114.675,-33.831 -117.824,-30.681 -117.824,-26.832C-117.824,-22.982 -114.675,-19.832 -110.825,-19.832L-39.948,-19.832C-38.367,-17.753 -36.624,-15.806 -34.743,-13.999L-71.161,-13.999C-75.011,-13.999 -78.161,-10.849 -78.161,-7C-78.161,-3.15 -75.011,0 -71.161,0L0,0C27.704,0 50.163,-22.459 50.163,-50.163C50.163,-77.867 27.704,-100.326 0,-100.326" style="fill:rgb(0,150,245);fill-rule:nonzero;"/>
            </g>
            <g transform="matrix(0,-2.92672,-2.92672,0,357.734,118.534)">
                <path d="M-39.031,-39.031C-60.587,-39.031 -78.062,-21.556 -78.062,0C-78.062,21.556 -60.587,39.031 -39.031,39.031C-17.474,39.031 0,21.556 0,0C0,-21.556 -17.474,-39.031 -39.031,-39.031" style="fill:rgb(0,173,245);fill-rule:nonzero;"/>
            </g>
            <g transform="matrix(2.92672,0,0,2.92672,338.899,206.11)">
                <path d="M0,6.072L-19.372,6.072C-21.002,6.072 -22.335,4.739 -22.335,3.108L-22.335,2.964C-22.335,1.334 -21.002,0 -19.372,0L0,0C1.63,0 2.964,1.334 2.964,2.964L2.964,3.108C2.964,4.739 1.63,6.072 0,6.072" style="fill:white;fill-rule:nonzero;"/>
            </g>
            <g transform="matrix(2.92672,0,0,2.92672,368.516,157.241)">
                <path d="M0,6.072L-11.782,6.072C-13.412,6.072 -14.746,4.738 -14.746,3.108L-14.746,2.964C-14.746,1.334 -13.412,0 -11.782,0L0,0C1.63,0 2.964,1.334 2.964,2.964L2.964,3.108C2.964,4.738 1.63,6.072 0,6.072" style="fill:white;fill-rule:nonzero;"/>
            </g>
            <g transform="matrix(2.92672,0,0,2.92672,344.823,287.558)">
                <path d="M0,6.072L-11.782,6.072C-13.412,6.072 -14.746,4.739 -14.746,3.108L-14.746,2.964C-14.746,1.334 -13.412,0 -11.782,0L0,0C1.63,0 2.964,1.334 2.964,2.964L2.964,3.108C2.964,4.739 1.63,6.072 0,6.072" style="fill:white;fill-rule:nonzero;"/>
            </g>
            <g transform="matrix(2.92672,0,0,2.92672,433.675,247.574)">
                <path d="M0,6.072L-19.372,6.072C-21.001,6.072 -22.335,4.739 -22.335,3.108L-22.335,2.964C-22.335,1.334 -21.001,0 -19.372,0L0,0C1.63,0 2.964,1.334 2.964,2.964L2.964,3.108C2.964,4.739 1.63,6.072 0,6.072" style="fill:white;fill-rule:nonzero;"/>
            </g>
        </g>
        <g transform="matrix(4.86365,0,0,4.86365,-1481.88,-284.652)">
            <g transform="matrix(0,-1,-1,0,341.288,147.21)">
                <path d="M-4.453,-4.453C-6.912,-4.453 -8.907,-2.46 -8.907,0C-8.907,2.459 -6.912,4.453 -4.453,4.453C-1.994,4.453 0.001,2.459 0.001,0C0.001,-2.46 -1.994,-4.453 -4.453,-4.453" style="fill:rgb(0,150,245);fill-rule:nonzero;"/>
            </g>
            <g transform="matrix(0,-1,-1,0,357.32,147.21)">
                <path d="M-4.453,-4.453C-6.912,-4.453 -8.907,-2.46 -8.907,0C-8.907,2.459 -6.912,4.453 -4.453,4.453C-1.994,4.453 0.001,2.459 0.001,0C0.001,-2.46 -1.994,-4.453 -4.453,-4.453" style="fill:rgb(0,150,245);fill-rule:nonzero;"/>
            </g>
            <g transform="matrix(0,-1,-1,0,373.353,147.21)">
                <path d="M-4.454,-4.454C-6.912,-4.454 -8.907,-2.46 -8.907,0C-8.907,2.46 -6.912,4.454 -4.454,4.454C-1.995,4.454 0,2.46 0,0C0,-2.46 -1.995,-4.454 -4.454,-4.454" style="fill:rgb(0,150,245);fill-rule:nonzero;"/>
            </g>
        </g>
    </g>
</svg>
